<?xml version="1.0" encoding="UTF-8"?>
<!DOCTYPE svg PUBLIC "-//W3C//DTD SVG 1.1//EN" "http://www.w3.org/Graphics/SVG/1.1/DTD/svg11.dtd">
<!-- Creator: CorelDRAW 2017 -->
<svg xmlns="http://www.w3.org/2000/svg" xml:space="preserve" width="1775px" height="1242px" version="1.1" style="shape-rendering:geometricPrecision; text-rendering:geometricPrecision; image-rendering:optimizeQuality; fill-rule:evenodd; clip-rule:evenodd"
viewBox="0 0 17866 12504"
 xmlns:xlink="http://www.w3.org/1999/xlink">
 <defs>
  <style type="text/css">
   <![CDATA[
    .fil3 {fill:#727271}
    .fil2 {fill:#FEFEFE;fill-rule:nonzero}
    .fil0 {fill:#C5C6C6;fill-rule:nonzero}
    .fil1 {fill:#9D9E9E;fill-rule:nonzero}
   ]]>
  </style>
 </defs>
 <g id="Warstwa_x0020_1">
  <metadata id="CorelCorpID_0Corel-Layer"/>
  <polygon class="fil0" points="17866,11777 0,11777 0,9345 17866,9345 "/>
  <polygon class="fil1" points="11548,732 11548,0 10085,0 10085,1947 "/>
  <path class="fil1" d="M16033 1274l-1244 1033c934,299 1613,1175 1613,2208 0,1278 -1040,2318 -2318,2318l-1072 0 0 -3050 -1463 1215 0 3299 2536 0c2086,0 3782,-1697 3782,-3782 0,-1373 -735,-2578 -1833,-3240zm-11173 5559l-1077 0c-1278,0 -2318,-1040 -2318,-2318 0,-1278 1040,-2318 2318,-2318l1077 0 0 0 0 4636zm8153 -4636l1764 -1464 -2376 0 -3467 2774 -3467 -2774 -1684 0c-2086,0 -3782,1697 -3782,3782 0,2086 1697,3782 3782,3782l2540 0 0 -4884 2610 2171 407 -338 3671 -3049 1 0z"/>
  <polygon class="fil1" points="5752,11777 0,11777 0,9345 5752,9345 "/>
  <polygon class="fil2" points="3490,9967 3856,9967 3856,10296 4113,10101 4113,10328 3856,10523 3856,10862 4428,10862 4428,11154 3490,11154 3490,10800 3367,10893 3367,10666 3490,10573 "/>
  <path id="1" class="fil2" d="M5325 10959l-416 0 -60 196 -374 0 447 -1187 401 0 445 1187 -384 0 -59 -196zm-78 -257l-130 -427 -130 427 260 0z"/>
  <path id="2" class="fil2" d="M5890 9967l545 0c107,0 194,15 260,44 66,29 121,71 164,126 43,55 74,118 94,190 20,72 29,149 29,230 0,127 -14,225 -43,295 -29,70 -69,129 -120,176 -51,47 -106,79 -165,95 -80,22 -153,32 -219,32l-545 0 0 -1187zm366 269l0 648 90 0c77,0 132,-9 164,-26 32,-17 58,-47 76,-89 19,-43 28,-111 28,-206 0,-126 -20,-212 -62,-258 -41,-47 -109,-70 -205,-70l-92 0z"/>
  <path id="3" class="fil2" d="M7127 10562c0,-194 54,-345 162,-452 108,-108 258,-162 451,-162 198,0 350,53 457,159 107,106 160,255 160,446 0,139 -23,252 -70,341 -47,89 -114,158 -203,207 -88,50 -198,74 -330,74 -134,0 -245,-21 -332,-64 -88,-43 -159,-110 -213,-203 -54,-92 -82,-208 -82,-346zm366 1c0,120 22,206 67,258 45,52 106,79 182,79 79,0 140,-26 183,-77 43,-51 65,-143 65,-276 0,-112 -23,-193 -68,-245 -45,-52 -106,-77 -184,-77 -74,0 -134,26 -178,79 -45,52 -68,139 -68,260z"/>
  <polygon id="4" class="fil2" points="8405,9967 8754,9967 8879,10630 9062,9967 9408,9967 9592,10631 9718,9967 10065,9967 9803,11154 9443,11154 9235,10407 9028,11154 8669,11154 "/>
  <path id="5" class="fil2" d="M10914 10959l-416 0 -60 196 -374 0 447 -1187 401 0 445 1187 -384 0 -59 -196zm-78 -257l-130 -427 -130 427 260 0z"/>
  <polygon id="6" class="fil2" points="11477,9967 11819,9967 12264,10623 12264,9967 12611,9967 12611,11154 12264,11154 11822,10502 11822,11154 11477,11154 "/>
  <polygon id="7" class="fil2" points="12869,9967 13237,9967 13237,11154 12869,11154 "/>
  <polygon id="8" class="fil2" points="13499,9967 14481,9967 14481,10221 13867,10221 13867,10410 14436,10410 14436,10652 13867,10652 13867,10886 14499,10886 14499,11154 13499,11154 "/>
  <path class="fil0" d="M5535 12387c0,18 -3,34 -10,48 -7,14 -16,27 -28,37 -12,10 -26,18 -43,24 -17,6 -35,8 -56,8 -37,0 -66,-7 -88,-21l0 -48c26,21 56,31 90,31 14,0 26,-2 37,-5 11,-3 20,-8 28,-15 8,-6 14,-14 18,-24 4,-9 6,-20 6,-31 0,-51 -36,-76 -108,-76l-32 0 0 -38 31 0c64,0 96,-24 96,-72 0,-44 -24,-66 -73,-66 -27,0 -53,9 -77,28l0 -43c25,-15 54,-22 88,-22 16,0 31,2 44,7 13,5 25,11 34,19 9,8 17,18 22,29 5,11 8,24 8,38 0,51 -26,84 -78,99l0 1c13,1 25,5 37,10 11,5 21,11 29,19 8,8 15,17 19,28 5,11 7,23 7,36z"/>
  <path id="1" class="fil0" d="M5852 12374c0,19 -3,36 -9,52 -6,16 -15,30 -26,41 -11,12 -24,21 -39,27 -15,6 -31,10 -49,10 -20,0 -37,-4 -52,-12 -16,-8 -29,-20 -39,-35 -11,-15 -19,-34 -25,-56 -6,-22 -8,-47 -8,-75 0,-34 4,-64 11,-92 8,-28 18,-51 32,-71 14,-20 30,-35 50,-45 20,-11 41,-16 65,-16 27,0 48,4 64,11l0 42c-20,-10 -41,-16 -63,-16 -17,0 -33,4 -47,12 -14,8 -26,19 -36,33 -10,14 -18,31 -23,51 -5,20 -8,42 -8,67l1 0c18,-32 47,-48 89,-48 17,0 32,3 46,9 14,6 25,14 35,25 10,11 17,23 22,38 5,15 8,31 8,49zm-46 6c0,-14 -2,-26 -5,-37 -3,-11 -8,-20 -15,-28 -6,-8 -14,-13 -24,-18 -9,-4 -20,-6 -32,-6 -11,0 -21,2 -31,6 -9,4 -18,10 -24,17 -7,7 -12,16 -16,25 -4,10 -6,20 -6,30 0,13 2,26 6,38 4,12 9,22 16,30 7,9 15,16 25,20 10,5 20,8 32,8 11,0 22,-2 31,-6 9,-4 17,-10 24,-18 7,-8 12,-17 15,-27 4,-11 5,-22 5,-35z"/>
  <path id="2" class="fil0" d="M5984 12304c-27,0 -48,-9 -64,-26 -16,-18 -24,-41 -24,-71 0,-32 8,-57 25,-76 17,-19 39,-28 68,-28 28,0 49,9 64,26 15,17 23,41 23,72 0,31 -9,56 -26,75 -17,19 -40,28 -67,28zm4 -171c-17,0 -31,6 -41,19 -10,13 -15,30 -15,52 0,22 5,39 15,51 10,12 23,18 40,18 17,0 30,-6 40,-19 10,-13 14,-30 14,-53 0,-22 -5,-39 -14,-51 -10,-12 -23,-18 -39,-18zm256 -24l-249 391 -39 0 249 -391 39 0zm-29 394c-27,0 -48,-9 -64,-27 -16,-18 -24,-41 -24,-70 0,-32 9,-58 26,-76 17,-19 40,-28 68,-28 28,0 49,9 64,26 15,17 23,42 23,73 0,31 -9,56 -26,74 -17,19 -40,28 -67,28zm4 -171c-17,0 -31,6 -41,19 -10,13 -15,30 -15,53 0,22 5,38 15,51 10,12 23,18 40,18 17,0 30,-6 40,-19 10,-13 14,-30 14,-52 0,-22 -5,-39 -14,-51 -10,-12 -23,-18 -39,-18z"/>
  <circle class="fil3" cx="5747" cy="11770" r="72"/>
 </g>
</svg>
