<?xml version="1.0" encoding="UTF-8"?>
<!DOCTYPE svg PUBLIC "-//W3C//DTD SVG 1.1//EN" "http://www.w3.org/Graphics/SVG/1.1/DTD/svg11.dtd">
<!-- Creator: CorelDRAW 2017 -->
<svg xmlns="http://www.w3.org/2000/svg" xml:space="preserve" width="1920px" height="1821px" version="1.1" style="shape-rendering:geometricPrecision; text-rendering:geometricPrecision; image-rendering:optimizeQuality; fill-rule:evenodd; clip-rule:evenodd"
viewBox="0 0 19481 18479"
 xmlns:xlink="http://www.w3.org/1999/xlink">
 <defs>
  <style type="text/css">
   <![CDATA[
    .fil4 {fill:none}
    .fil3 {fill:#727271}
    .fil2 {fill:#FEFEFE;fill-rule:nonzero}
    .fil0 {fill:#C5C6C6;fill-rule:nonzero}
    .fil1 {fill:#9D9E9E;fill-rule:nonzero}
   ]]>
  </style>
 </defs>
 <g id="Warstwa_x0020_1">
  <metadata id="CorelCorpID_0Corel-Layer"/>
  <g id="_1147083230832">
   <polygon class="fil0" points="12508,10951 6973,10951 6973,10198 12508,10198 "/>
   <polygon class="fil1" points="10551,7529 10551,7303 10098,7303 10098,7906 "/>
   <path class="fil1" d="M11940 7697l-385 320c289,93 500,364 500,684 0,396 -322,718 -718,718l-332 0 0 -945 -453 376 0 1022 786 0c646,0 1172,-526 1172,-1172 0,-425 -228,-799 -568,-1004zm-3462 1722l-334 0c-396,0 -718,-322 -718,-718 0,-396 322,-718 718,-718l334 0 0 0 0 1436zm2526 -1436l546 -454 -736 0 -1074 860 -1074 -860 -522 0c-646,0 -1172,526 -1172,1172 0,646 526,1172 1172,1172l787 0 0 -1513 809 673 126 -105 1137 -945 0 0z"/>
   <polygon class="fil1" points="8755,10951 6973,10951 6973,10198 8755,10198 "/>
   <polygon class="fil2" points="8054,10391 8168,10391 8168,10492 8247,10432 8247,10502 8168,10563 8168,10668 8345,10668 8345,10758 8054,10758 8054,10649 8016,10677 8016,10607 8054,10578 "/>
   <path id="1" class="fil2" d="M8623 10698l-129 0 -19 61 -116 0 138 -368 124 0 138 368 -119 0 -18 -61zm-24 -80l-40 -132 -40 132 81 0z"/>
   <path id="2" class="fil2" d="M8798 10391l169 0c33,0 60,5 81,14 21,9 37,22 51,39 13,17 23,37 29,59 6,22 9,46 9,71 0,39 -4,70 -13,91 -9,22 -21,40 -37,55 -16,15 -33,24 -51,29 -25,7 -48,10 -68,10l-169 0 0 -368zm114 83l0 201 28 0c24,0 41,-3 51,-8 10,-5 18,-15 24,-28 6,-13 9,-34 9,-64 0,-39 -6,-66 -19,-80 -13,-14 -34,-22 -64,-22l-28 0z"/>
   <path id="3" class="fil2" d="M9181 10575c0,-60 17,-107 50,-140 34,-33 80,-50 140,-50 61,0 108,16 141,49 33,33 50,79 50,138 0,43 -7,78 -22,106 -14,27 -35,49 -63,64 -27,15 -62,23 -102,23 -41,0 -76,-7 -103,-20 -27,-13 -49,-34 -66,-63 -17,-29 -25,-64 -25,-107zm114 0c0,37 7,64 21,80 14,16 33,24 57,24 24,0 43,-8 57,-24 13,-16 20,-44 20,-86 0,-35 -7,-60 -21,-76 -14,-16 -33,-24 -57,-24 -23,0 -41,8 -55,24 -14,16 -21,43 -21,80z"/>
   <polygon id="4" class="fil2" points="9577,10391 9685,10391 9724,10596 9781,10391 9888,10391 9945,10596 9984,10391 10091,10391 10010,10758 9899,10758 9834,10527 9770,10758 9659,10758 "/>
   <path id="5" class="fil2" d="M10355 10698l-129 0 -19 61 -116 0 138 -368 124 0 138 368 -119 0 -18 -61zm-24 -80l-40 -132 -40 132 81 0z"/>
   <polygon id="6" class="fil2" points="10529,10391 10635,10391 10773,10594 10773,10391 10880,10391 10880,10758 10773,10758 10636,10556 10636,10758 10529,10758 "/>
   <polygon id="7" class="fil2" points="10960,10391 11074,10391 11074,10758 10960,10758 "/>
   <polygon id="8" class="fil2" points="11155,10391 11459,10391 11459,10469 11269,10469 11269,10528 11446,10528 11446,10603 11269,10603 11269,10675 11465,10675 11465,10758 11155,10758 "/>
   <path class="fil0" d="M8688 11140c0,6 -1,10 -3,15 -2,4 -5,8 -9,11 -4,3 -8,6 -13,7 -5,2 -11,3 -17,3 -11,0 -21,-2 -27,-7l0 -15c8,6 17,10 28,10 4,0 8,-1 11,-2 3,-1 6,-3 9,-5 3,-2 4,-4 6,-7 1,-3 2,-6 2,-10 0,-16 -11,-24 -34,-24l-10 0 0 -12 10 0c20,0 30,-7 30,-22 0,-14 -8,-21 -23,-21 -9,0 -17,3 -24,9l0 -13c8,-5 17,-7 27,-7 5,0 10,1 14,2 4,1 8,3 11,6 3,3 5,6 7,9 2,4 2,7 2,12 0,16 -8,26 -24,31l0 0c4,0 8,1 11,3 3,2 7,4 9,6 3,3 5,5 6,9 1,3 2,7 2,11z"/>
   <path id="1" class="fil0" d="M8786 11136c0,6 -1,11 -3,16 -2,5 -5,9 -8,13 -3,4 -7,6 -12,8 -5,2 -10,3 -15,3 -6,0 -12,-1 -16,-4 -5,-3 -9,-6 -12,-11 -3,-5 -6,-11 -8,-17 -2,-7 -3,-15 -3,-23 0,-11 1,-20 4,-29 2,-9 6,-16 10,-22 4,-6 9,-11 16,-14 6,-3 13,-5 20,-5 8,0 15,1 20,3l0 13c-6,-3 -13,-5 -20,-5 -5,0 -10,1 -15,4 -4,2 -8,6 -11,10 -3,4 -5,10 -7,16 -2,6 -3,13 -3,21l0 0c6,-10 15,-15 27,-15 5,0 10,1 14,3 4,2 8,4 11,8 3,3 5,7 7,12 2,5 2,10 2,15zm-14 2c0,-4 -1,-8 -2,-11 -1,-3 -3,-6 -5,-9 -2,-2 -5,-4 -7,-5 -3,-1 -6,-2 -10,-2 -3,0 -7,1 -9,2 -3,1 -6,3 -8,5 -2,2 -4,5 -5,8 -1,3 -2,6 -2,9 0,4 1,8 2,12 1,4 3,7 5,9 2,3 5,5 8,6 3,2 6,2 10,2 3,0 7,-1 9,-2 3,-1 5,-3 7,-6 2,-2 4,-5 5,-8 1,-3 2,-7 2,-11z"/>
   <path id="2" class="fil0" d="M8827 11114c-8,0 -15,-3 -20,-8 -5,-5 -7,-13 -7,-22 0,-10 3,-18 8,-24 5,-6 12,-9 21,-9 9,0 15,3 20,8 5,5 7,13 7,22 0,10 -3,17 -8,23 -5,6 -12,9 -21,9zm1 -53c-5,0 -10,2 -13,6 -3,4 -5,9 -5,16 0,7 2,12 5,16 3,4 7,6 12,6 5,0 9,-2 12,-6 3,-4 4,-9 4,-16 0,-7 -1,-12 -4,-16 -3,-4 -7,-6 -12,-6zm79 -7l-77 121 -12 0 77 -121 12 0zm-9 122c-8,0 -15,-3 -20,-8 -5,-5 -7,-13 -7,-22 0,-10 3,-18 8,-24 5,-6 12,-9 21,-9 9,0 15,3 20,8 5,5 7,13 7,23 0,10 -3,17 -8,23 -5,6 -12,9 -21,9zm1 -53c-5,0 -10,2 -13,6 -3,4 -5,9 -5,16 0,7 2,12 5,16 3,4 7,6 12,6 5,0 9,-2 12,-6 3,-4 5,-9 5,-16 0,-7 -2,-12 -4,-16 -3,-4 -7,-6 -12,-6z"/>
   <circle class="fil3" cx="8754" cy="10949" r="22"/>
  </g>
  <rect class="fil4" width="19481" height="18479"/>
 </g>
</svg>
