<?xml version="1.0" encoding="UTF-8"?>
<!DOCTYPE svg PUBLIC "-//W3C//DTD SVG 1.1//EN" "http://www.w3.org/Graphics/SVG/1.1/DTD/svg11.dtd">
<!-- Creator: CorelDRAW 2017 -->
<svg xmlns="http://www.w3.org/2000/svg" xml:space="preserve" width="1919px" height="661px" version="1.1" style="shape-rendering:geometricPrecision; text-rendering:geometricPrecision; image-rendering:optimizeQuality; fill-rule:evenodd; clip-rule:evenodd"
viewBox="0 0 19471 6708"
 xmlns:xlink="http://www.w3.org/1999/xlink">
 <defs>
  <style type="text/css">
   <![CDATA[
    .fil4 {fill:none}
    .fil3 {fill:#727271}
    .fil2 {fill:#FEFEFE;fill-rule:nonzero}
    .fil0 {fill:#C5C6C6;fill-rule:nonzero}
    .fil1 {fill:#9D9E9E;fill-rule:nonzero}
   ]]>
  </style>
 </defs>
 <g id="Warstwa_x0020_1">
  <metadata id="CorelCorpID_0Corel-Layer"/>
  <g id="_1147083231472">
   <polygon class="fil0" points="11108,4203 8364,4203 8364,3829 11108,3829 "/>
   <polygon class="fil1" points="10137,2506 10137,2394 9913,2394 9913,2693 "/>
   <path class="fil1" d="M10826 2590l-191 159c144,46 248,181 248,339 0,196 -160,356 -356,356l-165 0 0 -468 -225 187 0 507 390 0c320,0 581,-261 581,-581 0,-211 -113,-396 -282,-498zm-1716 854l-166 0c-196,0 -356,-160 -356,-356 0,-196 160,-356 356,-356l166 0 0 0 0 712zm1252 -712l271 -225 -365 0 -533 426 -533 -426 -259 0c-320,0 -581,261 -581,581 0,320 261,581 581,581l390 0 0 -750 401 333 63 -52 564 -468 0 0z"/>
   <polygon class="fil1" points="9247,4203 8364,4203 8364,3829 9247,3829 "/>
   <polygon class="fil2" points="8900,3925 8956,3925 8956,3975 8995,3945 8995,3980 8956,4010 8956,4062 9044,4062 9044,4107 8900,4107 8900,4053 8881,4067 8881,4032 8900,4018 "/>
   <path id="1" class="fil2" d="M9182 4077l-64 0 -9 30 -58 0 69 -182 62 0 68 182 -59 0 -9 -30zm-12 -40l-20 -66 -20 66 40 0z"/>
   <path id="2" class="fil2" d="M9268 3925l84 0c16,0 30,2 40,7 10,5 19,11 25,19 7,8 12,18 14,29 3,11 5,23 5,35 0,20 -2,35 -7,45 -5,11 -11,20 -19,27 -8,7 -16,12 -25,15 -12,3 -24,5 -34,5l-84 0 0 -182zm56 41l0 100 14 0c12,0 20,-1 25,-4 5,-3 9,-7 12,-14 3,-7 4,-17 4,-32 0,-19 -3,-33 -10,-40 -6,-7 -17,-11 -31,-11l-14 0z"/>
   <path id="3" class="fil2" d="M9458 4016c0,-30 8,-53 25,-70 17,-17 40,-25 69,-25 30,0 54,8 70,24 16,16 25,39 25,68 0,21 -4,39 -11,52 -7,14 -18,24 -31,32 -14,8 -31,11 -51,11 -21,0 -38,-3 -51,-10 -14,-7 -24,-17 -33,-31 -8,-14 -13,-32 -13,-53zm56 0c0,18 3,32 10,40 7,8 16,12 28,12 12,0 22,-4 28,-12 7,-8 10,-22 10,-42 0,-17 -4,-30 -10,-38 -7,-8 -16,-12 -28,-12 -11,0 -21,4 -27,12 -7,8 -10,21 -10,40z"/>
   <polygon id="4" class="fil2" points="9655,3925 9708,3925 9727,4027 9755,3925 9809,3925 9837,4027 9856,3925 9909,3925 9869,4107 9814,4107 9782,3992 9750,4107 9695,4107 "/>
   <path id="5" class="fil2" d="M10040 4077l-64 0 -9 30 -58 0 69 -182 62 0 68 182 -59 0 -9 -30zm-12 -40l-20 -66 -20 66 40 0z"/>
   <polygon id="6" class="fil2" points="10126,3925 10179,3925 10247,4026 10247,3925 10301,3925 10301,4107 10247,4107 10179,4007 10179,4107 10126,4107 "/>
   <polygon id="7" class="fil2" points="10340,3925 10397,3925 10397,4107 10340,4107 "/>
   <polygon id="8" class="fil2" points="10437,3925 10588,3925 10588,3964 10494,3964 10494,3993 10581,3993 10581,4030 10494,4030 10494,4066 10591,4066 10591,4107 10437,4107 "/>
   <path class="fil0" d="M9214 4297c0,3 -1,5 -2,7 -1,2 -2,4 -4,6 -2,2 -4,3 -7,4 -3,1 -5,1 -9,1 -6,0 -10,-1 -14,-3l0 -7c4,3 9,5 14,5 2,0 4,0 6,-1 2,-1 3,-1 4,-2 1,-1 2,-2 3,-4 1,-1 1,-3 1,-5 0,-8 -6,-12 -17,-12l-5 0 0 -6 5 0c10,0 15,-4 15,-11 0,-7 -4,-10 -11,-10 -4,0 -8,1 -12,4l0 -7c4,-2 8,-3 14,-3 3,0 5,0 7,1 2,1 4,2 5,3 1,1 3,3 3,5 1,2 1,4 1,6 0,8 -4,13 -12,15l0 0c2,0 4,1 6,2 2,1 3,2 5,3 1,1 2,3 3,4 1,2 1,4 1,5z"/>
   <path id="1" class="fil0" d="M9262 4295c0,3 0,6 -1,8 -1,3 -2,5 -4,6 -2,2 -4,3 -6,4 -2,1 -5,2 -8,2 -3,0 -6,-1 -8,-2 -2,-1 -4,-3 -6,-5 -2,-2 -3,-5 -4,-9 -1,-3 -1,-7 -1,-11 0,-5 1,-10 2,-14 1,-4 3,-8 5,-11 2,-3 5,-5 8,-7 3,-2 6,-2 10,-2 4,0 7,1 10,2l0 7c-3,-2 -6,-2 -10,-2 -3,0 -5,1 -7,2 -2,1 -4,3 -6,5 -2,2 -3,5 -4,8 -1,3 -1,7 -1,10l0 0c3,-5 7,-8 14,-8 3,0 5,1 7,1 2,1 4,2 5,4 2,2 3,4 3,6 1,2 1,5 1,8zm-7 1c0,-2 0,-4 -1,-6 -1,-2 -1,-3 -2,-4 -1,-1 -2,-2 -4,-3 -2,-1 -3,-1 -5,-1 -2,0 -3,0 -5,1 -2,1 -3,2 -4,3 -1,1 -2,2 -3,4 -1,2 -1,3 -1,5 0,2 0,4 1,6 1,2 1,3 3,5 1,1 2,2 4,3 2,1 3,1 5,1 2,0 3,0 5,-1 1,-1 3,-2 4,-3 1,-1 2,-3 2,-4 1,-2 1,-3 1,-5z"/>
   <path id="2" class="fil0" d="M9283 4284c-4,0 -7,-1 -10,-4 -2,-3 -4,-6 -4,-11 0,-5 1,-9 4,-12 3,-3 6,-4 10,-4 4,0 8,1 10,4 2,3 4,6 4,11 0,5 -1,9 -4,12 -3,3 -6,4 -10,4zm1 -26c-3,0 -5,1 -6,3 -2,2 -2,5 -2,8 0,3 1,6 2,8 2,2 4,3 6,3 3,0 5,-1 6,-3 2,-2 2,-5 2,-8 0,-3 -1,-6 -2,-8 -2,-2 -3,-3 -6,-3zm39 -4l-38 60 -6 0 38 -60 6 0zm-4 61c-4,0 -7,-1 -10,-4 -3,-3 -4,-6 -4,-11 0,-5 1,-9 4,-12 3,-3 6,-4 10,-4 4,0 8,1 10,4 2,3 4,6 4,11 0,5 -1,9 -4,11 -3,3 -6,4 -10,4zm1 -26c-3,0 -5,1 -6,3 -2,2 -2,5 -2,8 0,3 1,6 2,8 2,2 4,3 6,3 3,0 5,-1 6,-3 2,-2 2,-5 2,-8 0,-3 -1,-6 -2,-8 -1,-2 -3,-3 -6,-3z"/>
   <circle class="fil3" cx="9246" cy="4202" r="11"/>
  </g>
  <rect class="fil4" width="19471" height="6708"/>
 </g>
</svg>
