<?xml version="1.0" encoding="UTF-8"?>
<!DOCTYPE svg PUBLIC "-//W3C//DTD SVG 1.1//EN" "http://www.w3.org/Graphics/SVG/1.1/DTD/svg11.dtd">
<!-- Creator: CorelDRAW 2017 -->
<svg xmlns="http://www.w3.org/2000/svg" xml:space="preserve" width="1775px" height="1242px" version="1.1" style="shape-rendering:geometricPrecision; text-rendering:geometricPrecision; image-rendering:optimizeQuality; fill-rule:evenodd; clip-rule:evenodd"
viewBox="0 0 1786.57 1250.42"
 xmlns:xlink="http://www.w3.org/1999/xlink">
 <defs>
  <style type="text/css">
   <![CDATA[
    .fil3 {fill:#727271}
    .fil2 {fill:#FEFEFE;fill-rule:nonzero}
    .fil0 {fill:#C5C6C6;fill-rule:nonzero}
    .fil1 {fill:#9D9E9E;fill-rule:nonzero}
   ]]>
  </style>
 </defs>
 <g id="Warstwa_x0020_1">
  <metadata id="CorelCorpID_0Corel-Layer"/>
  <polygon class="fil0" points="1786.56,1177.65 0,1177.65 0,934.5 1786.56,934.5 "/>
  <polygon class="fil1" points="1154.78,73.16 1154.78,0 1008.46,0 1008.46,194.65 "/>
  <path class="fil1" d="M1603.27 127.42l-124.38 103.27c93.42,29.93 161.27,117.54 161.27,220.76 0,127.82 -103.99,231.82 -231.82,231.82l-107.24 0 0 -304.97 -146.32 121.49 0 329.89 253.56 0c208.56,0 378.23,-169.66 378.23,-378.23 0,-137.3 -73.54,-257.75 -183.3,-324.03zm-1117.31 555.85l-107.72 0c-127.82,0 -231.82,-104 -231.82,-231.82 0,-127.83 104,-231.82 231.82,-231.82l107.73 0 0.03 0.02 -0.04 463.62zm815.26 -463.64l176.35 -146.41 -237.6 0 -346.68 277.42 -346.67 -277.42 -168.38 0c-208.56,0 -378.24,169.66 -378.24,378.23 0,208.57 169.68,378.23 378.24,378.23l254.05 0 -0.04 -488.42 261.04 217.06 40.73 -33.83 367.08 -304.86 0.12 0z"/>
  <polygon class="fil1" points="575.19,1177.65 0,1177.65 0,934.5 575.19,934.5 "/>
  <polygon class="fil2" points="348.95,996.73 385.58,996.73 385.58,1029.58 411.28,1010.1 411.28,1032.78 385.58,1052.26 385.58,1086.24 442.77,1086.24 442.77,1115.42 348.95,1115.42 348.95,1080.02 336.69,1089.31 336.69,1066.63 348.95,1057.34 "/>
  <path id="1" class="fil2" d="M532.53 1095.86l-41.55 0 -5.97 19.56 -37.43 0 44.67 -118.69 40.14 0 44.48 118.69 -38.4 0 -5.94 -19.56zm-7.76 -25.7l-12.96 -42.65 -13.01 42.65 25.97 0z"/>
  <path id="2" class="fil2" d="M588.95 996.73l54.5 0c10.72,0 19.43,1.46 26.03,4.36 6.6,2.93 12.07,7.11 16.41,12.55 4.31,5.47 7.43,11.8 9.36,19.03 1.96,7.24 2.93,14.89 2.93,22.99 0,12.68 -1.43,22.51 -4.34,29.5 -2.87,6.99 -6.87,12.85 -12.01,17.57 -5.14,4.73 -10.64,7.88 -16.52,9.45 -8.04,2.16 -15.34,3.24 -21.86,3.24l-54.5 0 0 -118.69zm36.63 26.85l0 64.82 9 0c7.68,0 13.16,-0.86 16.42,-2.55 3.23,-1.71 5.77,-4.66 7.62,-8.89 1.85,-4.26 2.76,-11.11 2.76,-20.61 0,-12.57 -2.04,-21.16 -6.16,-25.8 -4.11,-4.65 -10.94,-6.97 -20.47,-6.97l-9.17 0z"/>
  <path id="3" class="fil2" d="M712.74 1056.16c0,-19.37 5.39,-34.46 16.19,-45.23 10.8,-10.8 25.83,-16.19 45.12,-16.19 19.75,0 34.97,5.31 45.66,15.89 10.69,10.6 16.03,25.47 16.03,44.56 0,13.87 -2.32,25.22 -6.99,34.09 -4.67,8.87 -11.44,15.78 -20.25,20.72 -8.84,4.95 -19.84,7.4 -33.02,7.4 -13.37,0 -24.45,-2.12 -33.23,-6.38 -8.76,-4.28 -15.89,-11.02 -21.33,-20.25 -5.44,-9.2 -8.18,-20.75 -8.18,-34.61zm36.63 0.08c0,11.96 2.24,20.58 6.69,25.8 4.48,5.22 10.55,7.85 18.23,7.85 7.88,0 14.01,-2.57 18.32,-7.68 4.34,-5.14 6.49,-14.31 6.49,-27.6 0,-11.16 -2.26,-19.31 -6.77,-24.45 -4.53,-5.17 -10.63,-7.74 -18.37,-7.74 -7.4,0 -13.37,2.63 -17.84,7.85 -4.51,5.22 -6.75,13.9 -6.75,25.97z"/>
  <polygon id="4" class="fil2" points="840.54,996.73 875.35,996.73 887.87,1062.95 906.21,996.73 940.75,996.73 959.23,1063.06 971.83,996.73 1006.47,996.73 980.31,1115.42 944.34,1115.42 923.51,1040.68 902.81,1115.42 866.9,1115.42 "/>
  <path id="5" class="fil2" d="M1091.42 1095.86l-41.55 0 -5.97 19.56 -37.43 0 44.67 -118.69 40.14 0 44.48 118.69 -38.4 0 -5.94 -19.56zm-7.76 -25.7l-12.96 -42.65 -13.01 42.65 25.97 0z"/>
  <polygon id="6" class="fil2" points="1147.67,996.73 1181.9,996.73 1226.41,1062.26 1226.41,996.73 1261.05,996.73 1261.05,1115.42 1226.41,1115.42 1182.15,1050.24 1182.15,1115.42 1147.67,1115.42 "/>
  <polygon id="7" class="fil2" points="1286.91,996.73 1323.71,996.73 1323.71,1115.42 1286.91,1115.42 "/>
  <polygon id="8" class="fil2" points="1349.93,996.73 1448.06,996.73 1448.06,1022.09 1386.72,1022.09 1386.72,1040.99 1443.58,1040.99 1443.58,1065.19 1386.72,1065.19 1386.72,1088.56 1449.88,1088.56 1449.88,1115.42 1349.93,1115.42 "/>
  <path class="fil0" d="M553.47 1238.74c0,1.76 -0.34,3.35 -0.99,4.79 -0.66,1.44 -1.59,2.66 -2.8,3.68 -1.2,1.02 -2.63,1.81 -4.31,2.37 -1.68,0.56 -3.53,0.84 -5.56,0.84 -3.7,0 -6.64,-0.7 -8.83,-2.11l0 -4.77c2.63,2.06 5.62,3.09 9,3.09 1.36,0 2.58,-0.17 3.67,-0.52 1.09,-0.34 2.03,-0.83 2.82,-1.49 0.78,-0.64 1.39,-1.43 1.81,-2.35 0.43,-0.92 0.64,-1.96 0.64,-3.12 0,-5.07 -3.62,-7.61 -10.84,-7.61l-3.22 0 0 -3.76 3.06 0c6.39,0 9.58,-2.39 9.58,-7.15 0,-4.41 -2.43,-6.61 -7.31,-6.61 -2.73,0 -5.31,0.92 -7.71,2.77l0 -4.31c2.47,-1.48 5.41,-2.23 8.83,-2.23 1.62,0 3.1,0.23 4.41,0.69 1.32,0.45 2.45,1.08 3.38,1.89 0.94,0.82 1.67,1.79 2.18,2.92 0.52,1.14 0.78,2.4 0.78,3.76 0,5.12 -2.59,8.41 -7.75,9.87l0 0.11c1.32,0.14 2.54,0.46 3.66,0.96 1.11,0.49 2.08,1.14 2.9,1.93 0.81,0.8 1.45,1.73 1.9,2.8 0.46,1.08 0.7,2.27 0.7,3.56z"/>
  <path id="1" class="fil0" d="M585.23 1237.42c0,1.9 -0.3,3.64 -0.91,5.22 -0.62,1.6 -1.48,2.97 -2.56,4.13 -1.08,1.15 -2.37,2.05 -3.87,2.69 -1.5,0.64 -3.12,0.96 -4.87,0.96 -1.95,0 -3.7,-0.41 -5.24,-1.22 -1.55,-0.8 -2.86,-1.98 -3.93,-3.5 -1.08,-1.53 -1.89,-3.4 -2.45,-5.6 -0.57,-2.2 -0.84,-4.68 -0.84,-7.45 0,-3.37 0.38,-6.43 1.12,-9.19 0.75,-2.75 1.82,-5.11 3.2,-7.07 1.38,-1.96 3.04,-3.47 4.99,-4.54 1.96,-1.06 4.13,-1.6 6.53,-1.6 2.67,0 4.83,0.38 6.44,1.12l0 4.2c-1.99,-1.04 -4.11,-1.55 -6.33,-1.55 -1.74,0 -3.3,0.39 -4.68,1.17 -1.39,0.78 -2.58,1.87 -3.58,3.29 -0.99,1.41 -1.76,3.12 -2.29,5.13 -0.53,2.01 -0.8,4.24 -0.8,6.68l0.11 0c1.79,-3.22 4.74,-4.84 8.86,-4.84 1.7,0 3.22,0.29 4.59,0.87 1.36,0.57 2.53,1.4 3.49,2.45 0.97,1.05 1.72,2.31 2.23,3.78 0.53,1.46 0.79,3.09 0.79,4.87zm-4.55 0.57c0,-1.35 -0.17,-2.57 -0.52,-3.66 -0.34,-1.08 -0.83,-2 -1.47,-2.76 -0.64,-0.76 -1.43,-1.34 -2.37,-1.75 -0.94,-0.4 -2.01,-0.61 -3.19,-0.61 -1.11,0 -2.13,0.22 -3.06,0.63 -0.94,0.42 -1.76,0.98 -2.44,1.69 -0.69,0.71 -1.22,1.55 -1.61,2.49 -0.39,0.95 -0.58,1.96 -0.58,3.02 0,1.33 0.18,2.59 0.56,3.76 0.38,1.16 0.92,2.18 1.6,3.04 0.69,0.87 1.51,1.55 2.45,2.04 0.95,0.5 2,0.75 3.15,0.75 1.12,0 2.15,-0.21 3.06,-0.64 0.93,-0.42 1.71,-1.02 2.36,-1.77 0.66,-0.76 1.16,-1.67 1.52,-2.72 0.36,-1.06 0.54,-2.23 0.54,-3.51z"/>
  <path id="2" class="fil0" d="M598.39 1230.38c-2.67,0 -4.8,-0.88 -6.39,-2.64 -1.59,-1.76 -2.39,-4.11 -2.39,-7.06 0,-3.21 0.84,-5.74 2.53,-7.59 1.68,-1.86 3.94,-2.78 6.79,-2.78 2.76,0 4.91,0.86 6.43,2.58 1.53,1.71 2.3,4.12 2.3,7.23 0,3.1 -0.86,5.59 -2.56,7.46 -1.71,1.86 -3.95,2.8 -6.71,2.8zm0.38 -17.09c-1.72,0 -3.07,0.63 -4.06,1.91 -0.99,1.27 -1.49,3.02 -1.49,5.24 0,2.18 0.49,3.88 1.46,5.1 0.98,1.22 2.3,1.83 3.98,1.83 1.7,0 3.03,-0.63 3.99,-1.89 0.95,-1.27 1.43,-3.02 1.43,-5.25 0,-2.19 -0.47,-3.89 -1.42,-5.11 -0.96,-1.22 -2.25,-1.83 -3.89,-1.83zm25.62 -2.38l-24.91 39.1 -3.88 0 24.89 -39.1 3.9 0zm-2.87 39.43c-2.67,0 -4.8,-0.88 -6.39,-2.66 -1.59,-1.76 -2.39,-4.11 -2.39,-7.03 0,-3.22 0.85,-5.76 2.55,-7.63 1.69,-1.87 3.96,-2.8 6.77,-2.8 2.75,0 4.89,0.86 6.43,2.6 1.53,1.73 2.3,4.16 2.3,7.28 0,3.09 -0.86,5.57 -2.56,7.44 -1.71,1.86 -3.95,2.8 -6.71,2.8zm0.38 -17.06c-1.74,0 -3.09,0.63 -4.07,1.9 -0.99,1.26 -1.48,3.01 -1.48,5.25 0,2.15 0.49,3.83 1.46,5.05 0.98,1.21 2.3,1.82 3.98,1.82 1.69,0 3.03,-0.63 3.99,-1.9 0.95,-1.28 1.43,-3.02 1.43,-5.24 0,-2.2 -0.47,-3.9 -1.42,-5.1 -0.96,-1.19 -2.25,-1.78 -3.89,-1.78z"/>
  <circle class="fil3" cx="574.72" cy="1177.02" r="7.16"/>
 </g>
</svg>
