<?xml version="1.0" encoding="UTF-8"?>
<!DOCTYPE svg PUBLIC "-//W3C//DTD SVG 1.1//EN" "http://www.w3.org/Graphics/SVG/1.1/DTD/svg11.dtd">
<!-- Creator: CorelDRAW 2017 -->
<svg xmlns="http://www.w3.org/2000/svg" xml:space="preserve" width="200px" height="281px" version="1.1" style="shape-rendering:geometricPrecision; text-rendering:geometricPrecision; image-rendering:optimizeQuality; fill-rule:evenodd; clip-rule:evenodd"
viewBox="0 0 180.18 253.11"
 xmlns:xlink="http://www.w3.org/1999/xlink">
 <defs>
  <style type="text/css">
   <![CDATA[
    .fil2 {fill:#231F20;fill-rule:nonzero}
    .fil0 {fill:#378B36;fill-rule:nonzero}
    .fil1 {fill:white;fill-rule:nonzero}
   ]]>
  </style>
 </defs>
 <g id="Warstwa_x0020_1">
  <metadata id="CorelCorpID_0Corel-Layer"/>
  <g id="_2551397298288">
   <polygon class="fil0" points="116.84,104.56 116.84,253.11 61.41,253.11 61.41,104.56 "/>
   <path class="fil1" d="M97.9 236.87l0 -3.39c0,-1.5 -0.16,-2.91 -0.46,-4.2 -0.31,-1.28 -0.82,-2.41 -1.53,-3.35 -0.71,-0.95 -1.64,-1.69 -2.79,-2.24 -1.15,-0.53 -2.57,-0.8 -4.23,-0.8 -1.45,0 -2.7,0.27 -3.78,0.8 -1.07,0.55 -1.95,1.28 -2.65,2.19 -0.69,0.92 -1.21,2 -1.57,3.24 -0.34,1.24 -0.52,2.54 -0.52,3.9l0 3.85 17.53 0zm-23.54 6.5l0 -9.77c0,-2.35 0.26,-4.6 0.8,-6.73 0.53,-2.13 1.38,-3.98 2.56,-5.57 1.19,-1.58 2.72,-2.85 4.61,-3.78 1.9,-0.94 4.19,-1.4 6.89,-1.4 2.4,0 4.5,0.45 6.32,1.36 1.82,0.91 3.35,2.13 4.59,3.66 1.24,1.52 2.18,3.3 2.82,5.29 0.63,2 0.95,4.11 0.95,6.3l0 10.64 -29.54 0zm14.77 -36.8c1.4,0 2.68,-0.21 3.82,-0.65 1.15,-0.43 2.16,-1.05 3.01,-1.85 0.85,-0.81 1.51,-1.78 1.97,-2.9 0.48,-1.12 0.71,-2.39 0.71,-3.78 0,-1.39 -0.23,-2.65 -0.71,-3.78 -0.46,-1.12 -1.12,-2.09 -1.97,-2.89 -0.85,-0.81 -1.86,-1.42 -3.01,-1.86 -1.14,-0.44 -2.42,-0.65 -3.82,-0.65 -1.36,0 -2.62,0.21 -3.79,0.65 -1.17,0.44 -2.18,1.05 -3.03,1.86 -0.84,0.8 -1.5,1.77 -1.97,2.89 -0.48,1.13 -0.71,2.39 -0.71,3.78 0,1.39 0.23,2.66 0.71,3.78 0.47,1.12 1.13,2.09 1.97,2.9 0.85,0.8 1.86,1.42 3.03,1.85 1.17,0.44 2.43,0.65 3.79,0.65zm0 6.76c-2.36,0 -4.5,-0.41 -6.43,-1.2 -1.91,-0.79 -3.55,-1.89 -4.9,-3.31 -1.34,-1.42 -2.38,-3.1 -3.11,-5.05 -0.72,-1.95 -1.07,-4.08 -1.07,-6.38 0,-2.31 0.35,-4.43 1.07,-6.38 0.73,-1.95 1.77,-3.63 3.11,-5.05 1.35,-1.42 2.99,-2.53 4.9,-3.32 1.93,-0.79 4.07,-1.18 6.43,-1.18 2.37,0 4.51,0.39 6.43,1.18 1.92,0.79 3.55,1.9 4.9,3.32 1.35,1.42 2.39,3.1 3.11,5.05 0.72,1.95 1.09,4.07 1.09,6.38 0,2.3 -0.37,4.43 -1.09,6.38 -0.72,1.95 -1.76,3.63 -3.11,5.05 -1.35,1.42 -2.98,2.52 -4.9,3.31 -1.92,0.79 -4.06,1.2 -6.43,1.2zm-14.77 -36.25l0 -9.85 19.28 -6.8 0 -0.09 -19.28 -6.83 0 -9.81 29.54 0 0 6.51 -22.65 0 0 0.08 22.65 7.76 0 4.97 -22.65 7.47 0 0.08 22.65 0 0 6.51 -29.54 0zm16.95 -46.94l-16.95 11.1 0 -8.1 11.06 -6.25 -11.06 -6.64 0 -7.72 16.95 11.1 12.59 0 0 6.51 -12.59 0z"/>
  </g>
  <g id="_2551397301712">
   <polygon class="fil0" points="116.46,7.38 116.46,0 101.71,0 101.71,19.63 "/>
   <path class="fil2" d="M161.7 12.85l-12.55 10.42c9.42,3.01 16.27,11.85 16.27,22.26 0,12.89 -10.49,23.38 -23.38,23.38l-10.82 0 0 -30.76 -14.76 12.26 0 33.27 25.58 0c21.03,0 38.14,-17.12 38.14,-38.15 0,-13.85 -7.41,-25.99 -18.48,-32.68zm-112.69 56.06l-10.86 0c-12.89,0 -23.38,-10.49 -23.38,-23.38 0,-12.89 10.49,-23.38 23.38,-23.38l10.86 0 0 0 0 46.76zm82.22 -46.76l17.79 -14.77 -23.96 0 -34.97 27.98 -34.96 -27.98 -16.98 0c-21.04,0 -38.15,17.12 -38.15,38.15 0,21.03 17.11,38.15 38.15,38.15l25.62 0 -0.01 -49.26 26.33 21.89 4.11 -3.41 37.02 -30.75 0.01 0z"/>
  </g>
 </g>
</svg>
